<svg width="135" height="60" viewBox="0 0 135 60" fill="none" xmlns="http://www.w3.org/2000/svg">
<path d="M45.152 47C42.9333 47 40.9493 46.488 39.2 45.464C37.4933 44.3973 36.1493 42.968 35.168 41.176C34.1867 39.3413 33.696 37.272 33.696 34.968H39.456C39.456 36.1627 39.648 37.336 40.032 38.488C40.4587 39.64 41.0987 40.6 41.952 41.368C42.8053 42.136 43.872 42.52 45.152 42.52H46.752V47H45.152ZM12.96 47C8.94933 47 5.81333 45.6347 3.552 42.904C1.29067 40.1307 0.16 36.2907 0.16 31.384C0.16 29.8907 0.288 28.2693 0.544 26.52C0.8 24.7707 1.22667 23.128 1.824 21.592C2.42133 20.0133 3.21067 18.7333 4.192 17.752C5.216 16.7707 6.47467 16.28 7.968 16.28C8.52267 16.28 9.01333 16.344 9.44 16.472C9.86667 16.6 10.2293 16.7707 10.528 16.984C10.8693 17.1547 11.1467 17.3467 11.36 17.56C9.696 18.968 8.48 20.5253 7.712 22.232C6.944 23.9387 6.45333 25.5813 6.24 27.16C6.02667 28.7387 5.92 30.104 5.92 31.256C5.92 31.64 5.94133 32.28 5.984 33.176C6.02667 34.0293 6.15467 34.9893 6.368 36.056C6.624 37.1227 6.98667 38.1467 7.456 39.128C7.968 40.1093 8.672 40.92 9.568 41.56C10.464 42.2 11.5947 42.52 12.96 42.52H28C29.3227 42.52 30.3893 42.136 31.2 41.368C32.0533 40.6 32.672 39.64 33.056 38.488C33.4827 37.336 33.696 36.1627 33.696 34.968V22.488C33.696 21.4213 33.9733 20.696 34.528 20.312C35.0827 19.8853 35.7653 19.672 36.576 19.672C37.3867 19.672 38.0693 19.8853 38.624 20.312C39.1787 20.696 39.456 21.4213 39.456 22.488V34.968C39.456 37.272 38.9653 39.3413 37.984 41.176C37.0027 42.968 35.6587 44.3973 33.952 45.464C32.2453 46.488 30.2613 47 28 47H12.96ZM46.752 47V42.52C47.264 42.52 47.6053 42.712 47.776 43.096C47.9467 43.48 48.032 44.0347 48.032 44.76C48.032 45.4427 47.9467 45.9973 47.776 46.424C47.6053 46.808 47.264 47 46.752 47ZM24.48 15C23.4987 15 22.6453 14.6373 21.92 13.912C21.1947 13.1867 20.832 12.312 20.832 11.288C20.832 10.3067 21.1947 9.45333 21.92 8.728C22.6453 8.00267 23.4987 7.64 24.48 7.64C25.504 7.64 26.3573 8.00267 27.04 8.728C27.7653 9.45333 28.128 10.3067 28.128 11.288C28.128 12.312 27.7653 13.1867 27.04 13.912C26.3573 14.6373 25.504 15 24.48 15ZM15.136 15C14.1547 15 13.3013 14.6373 12.576 13.912C11.8507 13.1867 11.488 12.312 11.488 11.288C11.488 10.3067 11.8507 9.45333 12.576 8.728C13.3013 8.00267 14.1547 7.64 15.136 7.64C16.16 7.64 17.0133 8.00267 17.696 8.728C18.4213 9.45333 18.784 10.3067 18.784 11.288C18.784 12.312 18.4213 13.1867 17.696 13.912C17.0133 14.6373 16.16 15 15.136 15ZM19.808 6.808C18.8693 6.808 18.0587 6.488 17.376 5.848C16.736 5.16533 16.416 4.35466 16.416 3.416C16.416 2.47733 16.736 1.688 17.376 1.048C18.0587 0.365331 18.8693 0.0239983 19.808 0.0239983C20.7467 0.0239983 21.536 0.365331 22.176 1.048C22.8587 1.688 23.2 2.47733 23.2 3.416C23.2 4.35466 22.8587 5.16533 22.176 5.848C21.536 6.488 20.7467 6.808 19.808 6.808ZM46.75 47V42.52H51.038C52.4033 42.52 53.534 42.2 54.43 41.56C55.326 40.92 56.0087 40.1093 56.478 39.128C56.99 38.1467 57.3527 37.1227 57.566 36.056C57.822 34.9893 57.9713 34.0293 58.014 33.176C58.0567 32.28 58.078 31.64 58.078 31.256C58.078 30.104 57.9713 28.7387 57.758 27.16C57.5447 25.5813 57.054 23.9387 56.286 22.232C55.5607 20.5253 54.3447 18.968 52.638 17.56C52.8513 17.3467 53.1073 17.1547 53.406 16.984C53.7473 16.7707 54.1313 16.6 54.558 16.472C54.9847 16.344 55.4753 16.28 56.03 16.28C57.5233 16.28 58.7607 16.7707 59.742 17.752C60.766 18.7333 61.5767 20.0133 62.174 21.592C62.7713 23.128 63.198 24.7707 63.454 26.52C63.71 28.2693 63.838 29.8907 63.838 31.384C63.838 36.2907 62.7073 40.1307 60.446 42.904C58.1847 45.6347 55.0487 47 51.038 47H46.75ZM46.75 47C46.238 47 45.8967 46.808 45.726 46.424C45.5553 45.9973 45.47 45.4427 45.47 44.76C45.47 44.0347 45.5553 43.48 45.726 43.096C45.8967 42.712 46.238 42.52 46.75 42.52V47ZM60.83 59.48C59.8487 59.48 58.9953 59.1173 58.27 58.392C57.5447 57.6667 57.182 56.8133 57.182 55.832C57.182 54.808 57.5447 53.9333 58.27 53.208C58.9953 52.4827 59.8487 52.12 60.83 52.12C61.854 52.12 62.7073 52.4827 63.39 53.208C64.1153 53.9333 64.478 54.808 64.478 55.832C64.478 56.8133 64.1153 57.6667 63.39 58.392C62.7073 59.1173 61.854 59.48 60.83 59.48ZM51.486 59.48C50.5047 59.48 49.6513 59.1173 48.926 58.392C48.2007 57.6667 47.838 56.8133 47.838 55.832C47.838 54.808 48.2007 53.9333 48.926 53.208C49.6513 52.4827 50.5047 52.12 51.486 52.12C52.51 52.12 53.3633 52.4827 54.046 53.208C54.7713 53.9333 55.134 54.808 55.134 55.832C55.134 56.8133 54.7713 57.6667 54.046 58.392C53.3633 59.1173 52.51 59.48 51.486 59.48ZM101.472 47C99.2533 47 97.2693 46.488 95.52 45.464C93.8133 44.3973 92.4693 42.968 91.488 41.176C90.5067 39.3413 90.016 37.272 90.016 34.968V31.704H95.776V34.968C95.776 36.1627 95.968 37.336 96.352 38.488C96.7787 39.64 97.4187 40.6 98.272 41.368C99.1253 42.136 100.192 42.52 101.472 42.52H103.776V47H101.472ZM73.376 47C72.5653 47 71.9893 46.7867 71.648 46.36C71.3493 45.8907 71.2 45.3573 71.2 44.76C71.2 44.1627 71.3493 43.6507 71.648 43.224C71.9893 42.7547 72.5653 42.52 73.376 42.52H81.952C84.5973 42.52 86.6027 41.5387 87.968 39.576C89.3333 37.5707 90.016 34.84 90.016 31.384C90.016 28.824 89.6533 26.712 88.928 25.048C88.2027 23.384 87.1147 22.2107 85.664 21.528C84.256 20.8027 82.528 20.6107 80.48 20.952L84.192 20.248C82.8693 20.504 81.6747 20.888 80.608 21.4C79.5413 21.912 78.7093 22.6373 78.112 23.576C77.5147 24.5147 77.216 25.7733 77.216 27.352C76.8747 27.3947 76.4053 27.3947 75.808 27.352C75.2533 27.2667 74.7413 27.1173 74.272 26.904C73.7173 26.648 73.2267 26.2427 72.8 25.688C72.3733 25.1333 72.16 24.3653 72.16 23.384C72.16 22.36 72.3947 21.4213 72.864 20.568C73.376 19.672 74.08 18.9253 74.976 18.328C75.9147 17.688 77.0027 17.1973 78.24 16.856C79.4773 16.472 80.8427 16.28 82.336 16.28C84.384 16.28 86.2187 16.6213 87.84 17.304C89.504 17.9867 90.9333 18.9893 92.128 20.312C93.3227 21.6347 94.2187 23.2347 94.816 25.112C95.456 26.9893 95.776 29.144 95.776 31.576C95.776 35.1173 95.136 38.04 93.856 40.344C92.576 42.6053 90.8907 44.2907 88.8 45.4C86.7093 46.4667 84.4267 47 81.952 47H73.376ZM103.776 47V42.52C104.288 42.52 104.629 42.712 104.8 43.096C104.971 43.48 105.056 44.0347 105.056 44.76C105.056 45.4427 104.971 45.9973 104.8 46.424C104.629 46.808 104.288 47 103.776 47ZM103.75 47V42.52H123.27C125.019 42.52 126.406 41.8373 127.43 40.472C128.454 39.064 128.966 36.6747 128.966 33.304C128.966 28.6107 127.878 25.3467 125.702 23.512C123.569 21.6773 120.475 20.76 116.422 20.76C115.569 20.76 114.801 20.7813 114.118 20.824C113.435 20.8667 112.817 20.9307 112.262 21.016C111.707 21.0587 111.174 21.08 110.662 21.08C109.638 21.08 108.806 20.9307 108.166 20.632C107.526 20.3333 107.035 19.9067 106.694 19.352C106.395 18.7547 106.161 18.0933 105.99 17.368C105.905 16.8987 105.819 16.4293 105.734 15.96C105.691 15.448 105.691 15.1067 105.734 14.936C106.161 15.2347 106.737 15.576 107.462 15.96C108.187 16.344 109.169 16.536 110.406 16.536C110.833 16.536 111.323 16.5147 111.878 16.472C112.475 16.4293 113.137 16.3867 113.862 16.344C114.587 16.3013 115.377 16.28 116.23 16.28C119.515 16.28 122.331 16.6853 124.678 17.496C127.025 18.264 128.923 19.3947 130.374 20.888C131.867 22.3813 132.955 24.1733 133.638 26.264C134.363 28.3547 134.726 30.68 134.726 33.24C134.726 36.6533 134.193 39.384 133.126 41.432C132.059 43.4373 130.651 44.8667 128.902 45.72C127.195 46.5733 125.318 47 123.27 47H103.75ZM103.75 47C103.238 47 102.897 46.808 102.726 46.424C102.555 45.9973 102.47 45.4427 102.47 44.76C102.47 44.0347 102.555 43.48 102.726 43.096C102.897 42.712 103.238 42.52 103.75 42.52V47Z" fill="#71C279"/>
</svg>
